<svg version="1.1" id="Layer_1" xmlns="http://www.w3.org/2000/svg" xmlns:xlink="http://www.w3.org/1999/xlink" x="0px" y="0px" width="338.717px" height="73.346px" viewBox="0 0 338.717 73.346" enable-background="new 0 0 338.717 73.346" xml:space="preserve">
<g>
	<g>
		<path fill="#ffffff" d="M269.431,18.345l-0.166-0.045c-0.115,0.003-0.162,0.016-0.218,0.038c-0.073,0.141-0.157,0.271-0.284,0.371
			c-0.154,0.126-0.352,0.207-0.583,0.256c-0.457,0.099-1.09,0.102-2.124,0.103h-11.606c-1.338-0.004-1.949-0.027-2.355-0.185
			c-0.133-0.055-0.248-0.137-0.325-0.237c-0.075-0.096-0.117-0.193-0.147-0.288c-0.062-0.029-0.125-0.057-0.226-0.057l-0.201,0.073
			c-0.197,1.157-0.366,2.96-0.973,4.975c0.079,0.102,0.22,0.175,0.415,0.177c0.091,0,0.176-0.027,0.255-0.055
			c0.45-1.066,0.844-1.922,1.433-2.537c0.611-0.642,1.443-0.979,2.629-0.975h1.934c0.221,0.001,0.39,0.011,0.551,0.058
			c0.16,0.044,0.31,0.165,0.378,0.316c0.042,0.1,0.056,0.197,0.07,0.3c0.014,0.139,0.014,0.29,0.014,0.477v13.525
			c0,1.076-0.028,1.791-0.141,2.309c-0.105,0.513-0.365,0.873-0.771,1.037c-0.261,0.11-0.559,0.155-0.917,0.194l-1.298,0.144
			l-0.023,0.052l-0.033,0.238c-0.002,0.112,0.025,0.216,0.054,0.272c2.112-0.057,3.701-0.086,5.171-0.086
			c1.371,0,2.896,0.029,4.849,0.086l0.01-0.025l0.032-0.247c0.008-0.128-0.027-0.239-0.054-0.293l-1.132-0.14
			c-0.354-0.048-0.649-0.096-0.909-0.208c-0.261-0.111-0.479-0.305-0.612-0.574c-0.26-0.54-0.288-1.323-0.293-2.758V21.108
			c0-0.307,0.005-0.525,0.085-0.732c0.082-0.215,0.31-0.358,0.521-0.387c0.147-0.026,0.307-0.032,0.499-0.032h1.875
			c1.219-0.006,2.024,0.396,2.538,1.069c0.499,0.65,0.738,1.503,0.998,2.452l0.023,0.012l0.211,0.025
			c0.167,0.008,0.35-0.049,0.42-0.09c-0.005-0.171-0.012-0.346-0.012-0.526c0.005-1.61,0.183-3.523,0.447-4.549L269.431,18.345z"></path>
		<path fill="#ffffff" d="M201.361,19.066h-6.614c-1.462,0-2.955-0.032-4.39-0.09c-0.042,0.064-0.092,0.195-0.092,0.329l0.031,0.197
			l0.032,0.047l0.696,0.138c0.358,0.071,0.649,0.134,0.902,0.252c0.253,0.115,0.471,0.302,0.604,0.567
			c0.261,0.528,0.293,1.284,0.296,2.686v11.441c0,1.064-0.021,1.761-0.141,2.263c-0.102,0.498-0.373,0.843-0.767,1.001
			c-0.261,0.109-0.549,0.16-0.902,0.214h-0.005l-1.371,0.203l-0.021,0.043l-0.035,0.238c0,0.115,0.028,0.224,0.057,0.284
			c2.257-0.057,3.762-0.086,5.231-0.086h4.055c2.478,0,5.346,0.029,7.033,0.084c0.42-0.869,1.081-3.113,1.21-4.581l-0.102-0.086
			c-0.082-0.042-0.194-0.067-0.295-0.067c-0.141-0.002-0.239,0.048-0.268,0.089c-0.857,1.723-1.567,2.657-2.461,3.155
			c-0.893,0.498-1.891,0.511-3.246,0.513c-1.152-0.002-1.879-0.061-2.411-0.202c-0.527-0.136-0.854-0.39-1.078-0.706
			c-0.443-0.63-0.542-1.638-0.549-3.064v-3.65c0-0.26,0-0.455,0.028-0.624c0.023-0.165,0.094-0.344,0.253-0.451
			c0.105-0.069,0.214-0.097,0.326-0.112c0.152-0.021,0.316-0.022,0.532-0.022h2.151c0.817,0.002,1.371,0.049,1.8,0.356
			c0.429,0.317,0.604,0.823,0.767,1.569l0.136,0.685c0.061,0.03,0.183,0.071,0.316,0.065c0.134,0.006,0.268-0.034,0.33-0.063
			c-0.059-0.96-0.091-2.024-0.091-3.151c0-1.125,0.032-2.187,0.091-3.144l-0.044-0.021c-0.068-0.023-0.167-0.038-0.261-0.038
			c-0.141-0.007-0.278,0.034-0.344,0.066l-0.134,0.675c-0.162,0.746-0.343,1.245-0.771,1.553c-0.429,0.297-0.979,0.336-1.795,0.34
			h-2.151c-0.244-0.001-0.427-0.003-0.596-0.037c-0.157-0.028-0.338-0.123-0.429-0.283c-0.059-0.103-0.08-0.209-0.094-0.322
			c-0.021-0.15-0.021-0.321-0.021-0.537v-5.369c0-0.319,0-0.558,0.023-0.759c0.026-0.195,0.092-0.392,0.261-0.522
			c0.112-0.084,0.238-0.121,0.372-0.144c0.174-0.027,0.378-0.03,0.633-0.031h2.496c1.573-0.001,2.593,0.383,3.246,1.027l0.003,0.004
			l0.004,0.001c0.443,0.48,0.865,1.377,1.21,2.431c0.072,0.047,0.189,0.087,0.323,0.085c0.105,0.001,0.204-0.022,0.27-0.052
			l0.07-0.058c-0.134-1.768-0.312-3.625-0.38-4.4c-0.283,0.02-0.705,0.034-1.239,0.046
			C203.305,19.058,202.359,19.066,201.361,19.066z"></path>
		<path fill="#ffffff" d="M222.479,35.88c1.35,2.143,3.021,3.084,5.826,3.096c0.902,0.005,1.831-0.067,2.273-0.229l0.033-0.128
			c0-0.106-0.04-0.179-0.077-0.21c-0.525-0.049-1.329-0.257-2.143-0.903l-0.007-0.004c-1.561-1.318-2.841-3.64-4.9-7.752l0,0
			l-0.003-0.008c-0.07-0.154-0.124-0.293-0.124-0.457c-0.002-0.115,0.035-0.242,0.117-0.337c0.072-0.098,0.171-0.165,0.283-0.219
			c0.708-0.348,1.503-0.801,2.114-1.482c0.607-0.682,1.043-1.583,1.048-2.889c-0.005-1.879-0.872-3.303-2.615-4.314l-0.005-0.002
			c-1.097-0.662-3.35-1.072-5.972-1.066c-2.926,0-5.33,0.12-7.648,0.271c-0.037,0.02-0.119,0.142-0.112,0.315l0.035,0.206
			l0.04,0.051l0.767,0.112c0.34,0.048,0.614,0.104,0.86,0.238c0.243,0.132,0.426,0.357,0.527,0.644
			c0.203,0.575,0.208,1.425,0.211,2.965v10.857c-0.003,1.064-0.023,1.762-0.141,2.273c-0.105,0.504-0.366,0.855-0.762,1.024
			c-0.258,0.119-0.549,0.179-0.905,0.242l0,0l-0.755,0.137l-0.025,0.048l-0.03,0.238c-0.005,0.115,0.023,0.223,0.052,0.284
			c1.561-0.056,2.908-0.085,4.427-0.085c1.451,0,2.848,0.029,4.439,0.085l0.012-0.028l0.03-0.256
			c0.005-0.117-0.023-0.232-0.045-0.287l-0.745-0.136h0.003c-0.359-0.063-0.649-0.123-0.907-0.242
			c-0.256-0.113-0.474-0.306-0.604-0.573c-0.268-0.536-0.291-1.306-0.298-2.725v-3.771c0-0.159,0-0.29,0.03-0.427
			c0.033-0.133,0.124-0.282,0.265-0.362c0.274-0.15,0.572-0.14,1.125-0.146c0.415,0,0.79,0.066,1.118,0.266
			c0.326,0.2,0.576,0.52,0.775,0.964C220.781,32.779,221.494,34.269,222.479,35.88z M218.949,29.097
			c-0.516,0-0.902-0.007-1.205-0.044c-0.3-0.039-0.539-0.105-0.722-0.277c-0.115-0.113-0.186-0.261-0.218-0.411
			c-0.05-0.203-0.052-0.421-0.052-0.693V21.69c0-0.417,0.002-0.729,0.044-0.984c0.04-0.249,0.127-0.479,0.324-0.626
			c0.131-0.097,0.281-0.146,0.44-0.172c0.22-0.037,0.474-0.042,0.797-0.042c1.279-0.002,2.384,0.476,3.154,1.322
			c0.767,0.846,1.195,2.048,1.195,3.477c0.003,1.865-0.618,2.93-1.2,3.498C220.88,28.79,220.113,29.103,218.949,29.097z"></path>
		<path fill="#ffffff" d="M244.845,37.643c1.315-1.043,2.061-2.511,2.061-4.326c0-1.626-0.586-2.845-1.409-3.803
			c-0.822-0.955-1.896-1.637-2.845-2.136l-2.061-1.072l0.005,0.001c-0.807-0.412-1.545-0.952-2.086-1.581
			c-0.541-0.632-0.896-1.362-0.896-2.147c-0.005-0.829,0.303-1.612,0.896-2.188c0.596-0.573,1.463-0.926,2.55-0.925
			c1.217,0,2.189,0.611,2.897,1.403c0.691,0.769,1.16,1.707,1.437,2.502c0.061,0.053,0.208,0.113,0.37,0.109
			c0.176,0.003,0.316-0.065,0.361-0.112c-0.003-1.871-0.274-3.401-0.5-4.093c-0.305-0.056-0.578-0.116-0.93-0.222
			c-1.217-0.359-2.473-0.481-3.479-0.48c-2.203,0-3.947,0.58-5.135,1.552c-1.188,0.975-1.84,2.338-1.84,3.99v0.053v0.004
			c0,1.447,0.583,2.597,1.445,3.541c0.865,0.942,2.014,1.666,3.117,2.209c0.947,0.465,2.03,1.074,2.891,1.898
			c0.862,0.822,1.502,1.882,1.497,3.21c0,0.824-0.283,1.664-0.888,2.303c-0.605,0.638-1.526,1.059-2.742,1.055
			c-1.426,0-2.672-0.755-3.636-1.74c-0.942-0.969-1.622-2.167-1.954-3.192c-0.05-0.06-0.169-0.116-0.324-0.114
			c-0.161-0.001-0.302,0.069-0.37,0.157c0.005,0.998,0.104,2.021,0.272,2.871c0.161,0.851,0.41,1.533,0.64,1.805
			c0.653,0.36,2.364,1.106,5.121,1.106C241.622,39.283,243.523,38.68,244.845,37.643z"></path>
		<path fill="#ffffff" d="M291.005,21.426c-1.877-1.8-4.537-2.852-7.723-2.852c-6.384,0.008-10.86,4.568-10.87,10.508
			c0.002,3.146,1.113,5.684,2.981,7.447c1.865,1.762,4.5,2.753,7.575,2.753c3.302,0,6.044-0.987,7.964-2.774
			c1.919-1.788,3.032-4.386,3.032-7.672C293.965,25.784,292.875,23.228,291.005,21.426z M288.164,35.674
			c-0.935,1.665-2.468,2.724-4.601,2.717c-2.662,0.004-4.371-1.598-5.357-3.619c-0.996-2.025-1.334-4.493-1.334-6.394
			c0-2.596,0.521-4.803,1.554-6.387c1.027-1.585,2.602-2.529,4.605-2.524c2.039-0.002,3.683,1.137,4.779,2.911
			c1.1,1.778,1.689,4.198,1.689,6.858C289.5,31.746,289.104,34.008,288.164,35.674z"></path>
		<path fill="#ffffff" d="M334.111,19.066h-6.614c-1.462,0-2.955-0.032-4.39-0.09c-0.047,0.064-0.096,0.195-0.092,0.329l0.031,0.197
			l0.032,0.047l0.698,0.138c0.356,0.071,0.647,0.134,0.9,0.252c0.253,0.115,0.471,0.302,0.604,0.567
			c0.265,0.528,0.296,1.284,0.3,2.686v11.441c-0.004,1.064-0.025,1.761-0.141,2.263c-0.105,0.498-0.377,0.843-0.771,1.001
			c-0.256,0.109-0.549,0.16-0.907,0.214l-1.373,0.203l-0.02,0.043l-0.035,0.238c-0.002,0.115,0.026,0.224,0.055,0.284
			c2.264-0.057,3.764-0.086,5.233-0.086h4.055c2.478,0,5.351,0.029,7.038,0.084c0.415-0.87,1.078-3.113,1.205-4.581l-0.102-0.086
			c-0.082-0.042-0.194-0.067-0.295-0.067c-0.141-0.001-0.239,0.048-0.268,0.089c-0.857,1.723-1.572,2.657-2.458,3.155
			c-0.9,0.498-1.894,0.511-3.249,0.513c-1.148-0.002-1.884-0.061-2.406-0.202c-0.527-0.136-0.858-0.39-1.083-0.704v-0.002
			c-0.44-0.63-0.546-1.637-0.546-3.064v-3.65c0-0.26,0-0.455,0.025-0.624c0.023-0.165,0.094-0.344,0.256-0.451
			c0.098-0.069,0.211-0.097,0.323-0.112c0.152-0.021,0.316-0.022,0.532-0.022h2.151c0.817,0.002,1.371,0.049,1.802,0.356
			c0.422,0.319,0.605,0.823,0.765,1.565v0.004l0.141,0.685c0.056,0.031,0.178,0.071,0.316,0.065c0.129,0.006,0.26-0.034,0.323-0.063
			c-0.057-0.959-0.089-2.025-0.089-3.152c0-1.125,0.032-2.187,0.089-3.146l-0.042-0.018c-0.063-0.023-0.167-0.038-0.265-0.038
			c-0.137-0.007-0.274,0.035-0.338,0.066l-0.136,0.672v0.003c-0.159,0.746-0.343,1.245-0.771,1.553
			c-0.429,0.297-0.979,0.336-1.795,0.34h-2.151c-0.244-0.001-0.427-0.003-0.591-0.037c-0.167-0.028-0.343-0.123-0.429-0.282
			c-0.062-0.104-0.085-0.211-0.099-0.322c-0.019-0.151-0.019-0.322-0.019-0.539v-5.369c0-0.319-0.003-0.558,0.021-0.759
			c0.026-0.195,0.092-0.392,0.265-0.522c0.113-0.084,0.234-0.121,0.366-0.144c0.178-0.027,0.38-0.03,0.64-0.031h2.496
			c1.568-0.001,2.588,0.383,3.241,1.027l0.003,0.004l0.004,0.001c0.445,0.48,0.86,1.376,1.21,2.431
			c0.072,0.047,0.189,0.087,0.323,0.085c0.101,0.001,0.204-0.022,0.27-0.052l0.07-0.058c-0.134-1.768-0.312-3.625-0.375-4.4
			c-0.288,0.02-0.708,0.034-1.244,0.046C336.055,19.058,335.112,19.066,334.111,19.066z"></path>
		<path fill="#ffffff" d="M311.899,18.978l-0.019,0.038l-0.035,0.26c0,0.121,0.033,0.214,0.063,0.273l0.722,0.105
			c0.432,0.063,0.837,0.149,1.188,0.318c0.354,0.166,0.653,0.432,0.822,0.817v0.005c0.192,0.476,0.305,1.263,0.382,2.265
			c0.075,0.999,0.105,2.199,0.105,3.447v4.231c-0.002,0.559,0.008,1.083-0.143,1.479l-0.147,0.366l-0.286-0.279
			c-0.731-0.722-1.639-1.795-3.005-3.391l-2.622-3.038c-1.404-1.641-2.613-3.044-3.516-4.22c-0.823-1.074-1.379-1.936-1.61-2.666
			c-0.647,0.05-1.475,0.077-2.438,0.077c-1.259,0-2.787-0.03-4.233-0.09l-0.027,0.049c-0.028,0.063-0.05,0.167-0.045,0.27
			c-0.005,0.105,0.021,0.194,0.045,0.254l0.742,0.105c0.57,0.081,0.992,0.218,1.311,0.42c0.321,0.205,0.527,0.477,0.668,0.769v0.007
			c0.223,0.505,0.244,1.027,0.246,2.709v7.792c0,1.245-0.023,2.445-0.092,3.445c-0.07,0.997-0.171,1.781-0.36,2.26l0,0l0,0
			c-0.005,0.002-0.005,0.004-0.005,0.007h-0.002c-0.146,0.378-0.422,0.648-0.753,0.82c-0.337,0.175-0.729,0.268-1.157,0.348
			l-0.003,0.001l-0.419,0.072c-0.028,0.057-0.059,0.154-0.057,0.28l0.033,0.258l0.016,0.036c1.133-0.056,2.241-0.086,3.345-0.086
			c1.205,0,2.429,0.029,4.029,0.084l0.017-0.034l0.035-0.258c0-0.122-0.028-0.216-0.059-0.276l-0.75-0.105l-0.008,0
			c-0.417-0.064-0.822-0.151-1.176-0.318c-0.356-0.165-0.666-0.429-0.835-0.819l-0.002-0.002c-0.194-0.476-0.303-1.264-0.385-2.266
			c-0.07-1-0.101-2.202-0.101-3.447V25.4c0.007-1.135-0.019-1.659,0.183-2.08l0.147-0.293l0.256,0.211
			c0.609,0.504,1.622,1.78,3.436,3.961l7.203,8.775c1.059,1.278,1.884,2.447,2.285,3.008c0.061,0.092,0.119,0.17,0.159,0.227
			c0.305-0.017,0.628-0.079,0.902-0.184c0.26-0.097,0.464-0.234,0.546-0.332c-0.057-1.05-0.057-2.918-0.057-4.856v-7.331
			c0-1.248,0.031-2.449,0.105-3.447c0.078-1.002,0.19-1.789,0.383-2.265l0.004-0.006c0.157-0.372,0.425-0.645,0.753-0.824
			c0.33-0.181,0.705-0.277,1.127-0.341l0,0l0.448-0.074c0.03-0.056,0.063-0.151,0.059-0.274l-0.035-0.26l-0.017-0.037
			c-1.153,0.057-2.236,0.087-3.34,0.087C314.687,19.066,313.498,19.037,311.899,18.978z"></path>
		<path fill="#ffffff" d="M153.354,35.88c1.348,2.143,3.017,3.084,5.826,3.096c0.9,0.005,1.828-0.067,2.271-0.23l0.03-0.128
			c0-0.105-0.037-0.178-0.077-0.209c-0.522-0.049-1.329-0.256-2.145-0.903v0.002l-0.003-0.006c-1.565-1.318-2.84-3.64-4.9-7.752
			l-0.005-0.008c-0.07-0.153-0.126-0.292-0.126-0.457c0-0.116,0.039-0.243,0.117-0.338c0.072-0.098,0.178-0.164,0.288-0.218
			c0.705-0.348,1.5-0.801,2.109-1.482c0.611-0.682,1.048-1.583,1.05-2.889c-0.007-1.879-0.872-3.303-2.615-4.314v-0.002
			c-1.1-0.662-3.356-1.072-5.979-1.066c-2.923,0-5.329,0.12-7.643,0.271c-0.042,0.02-0.12,0.144-0.117,0.315l0.04,0.206l0.03,0.051
			l0.773,0.112c0.337,0.048,0.618,0.104,0.857,0.238c0.251,0.132,0.429,0.357,0.532,0.644c0.204,0.575,0.206,1.425,0.211,2.965
			v10.857c-0.005,1.064-0.025,1.762-0.141,2.273c-0.105,0.504-0.37,0.855-0.76,1.024c-0.26,0.119-0.553,0.179-0.906,0.242l0,0
			l-0.758,0.138l-0.021,0.049l-0.038,0.236c0,0.115,0.028,0.223,0.057,0.284c1.561-0.056,2.904-0.085,4.423-0.085
			c1.45,0,2.85,0.029,4.443,0.085l0.01-0.028l0.032-0.256c0.003-0.117-0.027-0.232-0.049-0.287l-0.738-0.136
			c-0.358-0.063-0.651-0.123-0.912-0.242c-0.253-0.113-0.471-0.306-0.604-0.573c-0.263-0.536-0.29-1.306-0.298-2.725v-3.771
			c0-0.159,0.003-0.291,0.038-0.427c0.028-0.134,0.119-0.282,0.258-0.362c0.274-0.15,0.571-0.14,1.125-0.146
			c0.417,0,0.794,0.066,1.12,0.266c0.323,0.2,0.574,0.52,0.773,0.964C151.65,32.779,152.363,34.269,153.354,35.88z M149.822,29.097
			c-0.521,0-0.907-0.007-1.209-0.044c-0.301-0.039-0.539-0.105-0.718-0.277c-0.119-0.113-0.189-0.261-0.223-0.411
			c-0.044-0.203-0.052-0.421-0.052-0.693V21.69c0-0.417,0.008-0.729,0.045-0.984c0.04-0.249,0.127-0.479,0.328-0.626
			c0.127-0.097,0.281-0.146,0.443-0.172c0.218-0.037,0.471-0.042,0.789-0.042c1.285-0.002,2.384,0.476,3.155,1.322
			c0.769,0.846,1.197,2.048,1.197,3.477c0.005,1.865-0.618,2.93-1.202,3.498C151.749,28.79,150.984,29.103,149.822,29.097z"></path>
		<path fill="#ffffff" d="M112.64,33.664c-0.031-0.034-0.074-0.068-0.141-0.097c-0.095-0.043-0.225-0.069-0.334-0.069
			c-0.112-0.002-0.193,0.028-0.225,0.051c-0.433,1.046-1.083,2.233-2.113,3.177c-1.051,0.968-2.51,1.668-4.46,1.665
			c-1.953,0.002-3.86-0.858-5.271-2.496c-1.412-1.637-2.323-4.047-2.323-7.15c-0.001-3.104,0.946-5.426,2.355-6.972
			c1.409-1.546,3.275-2.307,5.083-2.307c1.553,0,2.875,0.396,3.909,1.178c1.016,0.764,1.744,1.891,2.18,3.32l0.035,0.017
			l0.172,0.023c0.116,0,0.257-0.028,0.355-0.073c0.067-0.029,0.102-0.06,0.123-0.085c-0.246-1.62-0.348-3.699-0.362-4.505
			c-0.51-0.065-1.22-0.231-2.155-0.396c-1.083-0.19-2.44-0.371-4.007-0.371c-3.196-0.001-6.321,0.912-8.473,2.671
			c-2.1,1.711-3.675,4.263-3.677,7.928c0.003,3.724,1.665,6.176,3.855,7.831c2.148,1.579,5.215,2.28,8.231,2.279
			c2.333,0.001,4.475-0.635,6.148-1.096c0.187-0.328,0.408-0.908,0.601-1.666C112.352,35.729,112.531,34.746,112.64,33.664z"></path>
		<path fill="#ffffff" d="M134.853,21.426c-1.875-1.8-4.54-2.852-7.725-2.852c-6.381,0.008-10.863,4.568-10.867,10.508
			c0,3.146,1.115,5.684,2.978,7.447c1.867,1.762,4.503,2.753,7.576,2.753c3.301,0,6.048-0.987,7.962-2.774
			c1.92-1.788,3.031-4.386,3.035-7.672C137.813,25.784,136.723,23.228,134.853,21.426z M132.012,35.674
			c-0.935,1.665-2.468,2.724-4.599,2.717c-2.662,0.004-4.37-1.598-5.358-3.619c-0.995-2.025-1.333-4.493-1.336-6.394
			c0.003-2.596,0.521-4.803,1.554-6.387c1.027-1.585,2.605-2.529,4.605-2.524c2.04-0.002,3.686,1.137,4.778,2.911
			c1.104,1.778,1.691,4.198,1.694,6.858C133.348,31.747,132.949,34.008,132.012,35.674z"></path>
		<path fill="#ffffff" d="M179.145,18.978l-0.014,0.038l-0.035,0.258c-0.002,0.122,0.028,0.216,0.061,0.274l0.72,0.105
			c0.437,0.063,0.837,0.149,1.193,0.318c0.354,0.166,0.653,0.432,0.817,0.816l0.005,0.006c0.192,0.475,0.305,1.262,0.382,2.264
			c0.075,0.999,0.105,2.199,0.105,3.447v4.231c-0.007,0.559,0.012,1.083-0.143,1.479l-0.152,0.365l-0.281-0.279
			c-0.731-0.722-1.634-1.795-3.005-3.391l-2.622-3.038c-1.399-1.641-2.613-3.044-3.516-4.22c-0.823-1.074-1.379-1.936-1.61-2.666
			c-0.645,0.05-1.475,0.077-2.438,0.077c-1.261,0-2.787-0.03-4.233-0.09l-0.027,0.047c-0.028,0.065-0.045,0.168-0.045,0.271
			c-0.005,0.105,0.021,0.194,0.045,0.254l0.742,0.105c0.57,0.081,0.987,0.218,1.311,0.42c0.321,0.205,0.532,0.477,0.668,0.769v0.001
			v0.006c0.223,0.505,0.244,1.026,0.246,2.709v7.792c0,1.245-0.023,2.445-0.092,3.445c-0.072,0.998-0.171,1.781-0.365,2.26l0,0l0,0
			c-0.002,0.002-0.002,0.004-0.002,0.007h-0.005c-0.144,0.378-0.417,0.648-0.753,0.82c-0.332,0.175-0.724,0.268-1.152,0.348v0.001
			l-0.422,0.072c-0.031,0.057-0.059,0.153-0.059,0.278l0.035,0.258l0.016,0.037c1.133-0.056,2.236-0.086,3.345-0.086
			c1.21,0,2.426,0.029,4.029,0.084l0.017-0.034l0.032-0.259c0.003-0.121-0.025-0.215-0.056-0.274l-0.758-0.105
			c-0.417-0.064-0.822-0.151-1.176-0.318c-0.356-0.165-0.666-0.429-0.837-0.818v-0.003c-0.194-0.476-0.308-1.264-0.385-2.266
			c-0.072-1-0.105-2.202-0.105-3.447V25.4c0.007-1.135-0.017-1.659,0.188-2.081l0.15-0.29l0.253,0.209
			c0.609,0.504,1.622,1.78,3.436,3.961l7.203,8.775c1.055,1.278,1.884,2.447,2.282,3.008c0.063,0.092,0.12,0.17,0.162,0.227
			c0.302-0.017,0.628-0.079,0.899-0.184c0.263-0.097,0.467-0.234,0.549-0.331c-0.057-1.049-0.057-2.918-0.057-4.857v-7.331
			c0-1.248,0.031-2.449,0.105-3.447c0.078-1.002,0.19-1.789,0.383-2.265l0.004-0.005c0.157-0.371,0.43-0.646,0.755-0.825
			c0.328-0.181,0.708-0.277,1.125-0.341l0,0l0.448-0.074c0.027-0.056,0.059-0.152,0.059-0.275l-0.035-0.258l-0.017-0.037
			c-1.153,0.057-2.233,0.087-3.34,0.087C181.937,19.066,180.746,19.037,179.145,18.978z"></path>
	</g>
	<g>
		<path fill="#ffffff" d="M334.676,51.43v-2.617h1.484c0.961,0,1.572,0.447,1.572,1.299v0.021c0,0.759-0.604,1.297-1.572,1.297
			H334.676 M336.266,47.651h-2.864v7.273h1.274v-2.338h1.446c1.599,0,2.906-0.854,2.906-2.484v-0.021
			C339.028,48.616,337.972,47.651,336.266,47.651"></path>
		<path fill="#ffffff" d="M327.34,47.651h-1.277v4.186c0,1.341-0.698,2.016-1.83,2.016c-1.144,0-1.84-0.717-1.84-2.066v-4.135
			h-1.279v4.186c0,2.11,1.207,3.201,3.098,3.201c1.901,0,3.129-1.091,3.129-3.263V47.651"></path>
		<path fill="#ffffff" d="M311.668,53.863c-1.446,0-2.476-1.163-2.476-2.576v-0.021c0-1.414,1.008-2.566,2.449-2.566
			c1.448,0,2.479,1.174,2.479,2.588v0.019C314.121,52.72,313.111,53.863,311.668,53.863 M311.668,47.525
			c-2.234,0-3.816,1.714-3.816,3.762v0.019c0,2.049,1.562,3.742,3.79,3.742c2.236,0,3.818-1.715,3.818-3.761v-0.021
			C315.46,49.217,313.898,47.525,311.668,47.525"></path>
		<path fill="#ffffff" d="M297.84,51.254v-2.441h1.86c0.944,0,1.507,0.426,1.507,1.204v0.022c0,0.737-0.586,1.215-1.497,1.215
			H297.84 M299.801,47.651h-3.241v7.273h1.28v-2.537h1.601l1.788,2.537h1.517l-1.967-2.754c1.011-0.292,1.728-1.008,1.728-2.203
			v-0.021c0-0.635-0.218-1.174-0.603-1.57C301.438,47.918,300.715,47.651,299.801,47.651"></path>
		<path fill="#ffffff" d="M287.546,47.525c-2.189,0-3.748,1.724-3.748,3.762v0.019c0,2.122,1.498,3.742,3.773,3.742
			c1.287,0,2.313-0.52,3.033-1.133V50.86h-3.097v1.111h1.859v1.361c-0.445,0.334-1.069,0.551-1.758,0.551
			c-1.484,0-2.471-1.1-2.471-2.597v-0.021c0-1.393,1.02-2.566,2.357-2.566c0.929,0,1.477,0.302,2.037,0.778l0.811-0.965
			C289.597,47.877,288.816,47.525,287.546,47.525"></path>
		<polyline fill="#ffffff" points="271.111,47.651 265.719,47.651 265.719,54.924 271.163,54.924 271.163,53.78 266.993,53.78 
			266.993,51.827 270.643,51.827 270.643,50.683 266.993,50.683 266.993,48.792 271.111,48.792 271.111,47.651 		"></polyline>
		<path fill="#ffffff" d="M257.323,47.525c-2.206,0-3.755,1.692-3.755,3.762v0.019c0,2.09,1.582,3.742,3.701,3.742
			c1.356,0,2.193-0.499,2.95-1.288l-0.822-0.831c-0.626,0.582-1.195,0.935-2.089,0.935c-1.392,0-2.402-1.152-2.402-2.576v-0.021
			c0-1.424,1.02-2.566,2.402-2.566c0.832,0,1.456,0.364,2.039,0.905l0.818-0.945C259.47,47.992,258.659,47.525,257.323,47.525"></path>
		<polyline fill="#ffffff" points="247.796,47.651 246.537,47.651 246.537,52.678 242.637,47.651 241.456,47.651 241.456,54.924 
			242.712,54.924 242.712,49.749 246.723,54.924 247.796,54.924 247.796,47.651 		"></polyline>
		<path fill="#ffffff" d="M230.998,52.035l1.244-2.91l1.259,2.91H230.998 M232.856,47.596h-1.188l-3.199,7.328h1.313l0.746-1.757
			h3.44l0.738,1.757h1.35L232.856,47.596"></path>
		<path fill="#ffffff" d="M218.442,51.254v-2.441h1.861c0.944,0,1.507,0.426,1.507,1.204v0.022c0,0.737-0.584,1.215-1.498,1.215
			H218.442 M220.404,47.651h-3.236v7.273h1.274v-2.537h1.601l1.786,2.537h1.519l-1.966-2.754c1.013-0.292,1.728-1.008,1.728-2.203
			v-0.021c0-0.635-0.219-1.174-0.603-1.57C222.04,47.918,221.318,47.651,220.404,47.651"></path>
		<path fill="#ffffff" d="M211.102,47.651h-1.274v4.186c0,1.341-0.696,2.016-1.828,2.016c-1.144,0-1.843-0.717-1.843-2.066v-4.135
			h-1.277v4.186c0,2.11,1.207,3.201,3.099,3.201c1.901,0,3.124-1.091,3.124-3.263V47.651"></path>
		<path fill="#ffffff" d="M196.446,47.545c-1.448,0-2.481,0.861-2.481,2.109v0.021c0,1.34,0.867,1.797,2.418,2.171
			c1.351,0.313,1.641,0.594,1.641,1.111v0.023c0,0.539-0.494,0.913-1.289,0.913c-0.893,0-1.596-0.343-2.297-0.944l-0.769,0.913
			c0.872,0.778,1.922,1.165,3.038,1.165c1.525,0,2.597-0.811,2.597-2.172v-0.02c0-1.207-0.79-1.758-2.33-2.133
			c-1.403-0.332-1.734-0.581-1.734-1.143v-0.021c0-0.478,0.437-0.863,1.187-0.863c0.663,0,1.321,0.261,1.976,0.749l0.682-0.967
			C198.348,47.868,197.504,47.545,196.446,47.545"></path>
		<polyline fill="#ffffff" points="188.072,47.651 186.813,47.651 186.813,52.678 182.914,47.651 181.732,47.651 181.732,54.924 
			182.988,54.924 182.988,49.749 186.999,54.924 188.072,54.924 188.072,47.651 		"></polyline>
		<polyline fill="#ffffff" points="175.573,47.651 174.293,47.651 174.293,54.924 175.573,54.924 175.573,47.651 		"></polyline>
		<polyline fill="#ffffff" points="93.312,50.618 93.312,51.899 165.952,51.899 165.952,50.618 93.312,50.618 		"></polyline>
	</g>
	<g>
		<g>
			<g>
				<polygon fill="#3272B9" points="66.402,36.24 73.279,32.824 73.279,55.599 36.642,73.346 0,55.599 0,48.638 6.704,51.624 
					6.704,51.624 36.642,66.125 66.918,51.829 				"></polygon>
				<polygon fill="#3272B9" points="4.612,42.431 36.551,57.902 36.558,57.918 36.573,57.913 36.586,57.917 36.593,57.902 
					69.847,41.792 66.832,36.031 36.572,50.689 12.068,38.821 				"></polygon>
				<g>
					<path fill="#3272B9" d="M36.621,42.486l0.008,0.016l0.013-0.005l0.008,0.005l0.01-0.016l36.619-17.714c0-4.656,0,0,0-4.656
						c-1.881-1.536,0,0-1.881-1.536L36.642,35.274l-8.617-4.173l-7.452,3.61L36.621,42.486z"></path>
				</g>
				<path fill="#3272B9" d="M30.177,37.009c0.191,0,0.377-0.01,0.56-0.026L12.241,45.94l-1.112-6.664l14.418-6.996
					C25.492,34.624,27.031,37.009,30.177,37.009z"></path>
			</g>
			<g>
				<g>
					<polygon fill="#002441" points="66.575,51.624 73.279,55.599 73.279,40.12 66.575,42.303 					"></polygon>
					<polygon fill="#002441" points="36.642,66.125 36.642,73.346 73.279,55.599 66.575,51.624 					"></polygon>
					<polygon fill="#002441" points="36.572,50.689 36.558,57.918 73.279,40.12 73.279,32.824 					"></polygon>
					<polygon fill="#002441" points="36.621,42.486 36.642,35.274 71.398,18.58 73.279,17.722 73.279,24.772 					"></polygon>
				</g>
				<g>
					<polygon fill="#225083" points="66.575,51.624 73.279,55.599 73.279,40.12 66.575,42.303 					"></polygon>
					<polygon fill="#225083" points="36.642,66.125 36.642,73.346 73.279,55.599 66.575,51.624 					"></polygon>
					<polygon fill="#225083" points="36.572,50.689 36.558,57.918 73.279,40.12 73.279,32.824 					"></polygon>
					<polygon fill="#225083" points="36.621,42.486 36.642,35.274 71.398,18.58 73.279,17.722 73.279,24.772 					"></polygon>
				</g>
			</g>
		</g>
		<g>
			<g>
				<polygon fill="#3272B9" points="6.704,36.925 6.704,21.744 36.642,7.242 60.954,19.021 68.413,15.413 36.642,0.021 0,17.771 
					0,19.758 0,40.174 				"></polygon>
			</g>
			<polygon fill="#3272B9" points="6.383,37.101 36.642,22.444 45.241,26.609 52.695,22.998 36.661,15.23 36.65,15.215 
				36.642,15.22 36.629,15.215 36.621,15.23 3.364,31.34 			"></polygon>
		</g>
		<g>
			<g>
				<polygon fill="#313034" points="36.621,22.423 36.633,15.195 52.674,22.978 45.22,26.588 				"></polygon>
				<polygon fill="#313034" points="36.621,7.223 36.621,0 68.395,15.392 60.932,19.002 				"></polygon>
			</g>
			<g>
				<polygon fill="#225083" points="36.621,22.423 36.633,15.195 52.674,22.978 45.22,26.588 				"></polygon>
				<polygon fill="#225083" points="36.621,7.223 36.621,0 68.395,15.392 60.932,19.002 				"></polygon>
			</g>
		</g>
	</g>
</g>
</svg>