<?xml version="1.0" encoding="utf-8"?>
<!-- Generator: Adobe Illustrator 19.0.1, SVG Export Plug-In . SVG Version: 6.00 Build 0)  -->
<!DOCTYPE svg PUBLIC "-//W3C//DTD SVG 1.1//EN" "http://www.w3.org/Graphics/SVG/1.1/DTD/svg11.dtd">
<svg version="1.1" id="Layer_1" xmlns="http://www.w3.org/2000/svg" xmlns:xlink="http://www.w3.org/1999/xlink" x="0px" y="0px"
	 viewBox="0 0 621.8 113.2" enable-background="new 0 0 621.8 113.2" xml:space="preserve">
<g>
	<g>
		<path fill="#FFFFFF" d="M5.8,69.7c0.1,5.6,3,12.3,10.3,12.3c5.6,0,8.6-3.3,9.8-8h3.8c-1.6,7.1-5.8,11.3-13.7,11.3
			C6.2,85.3,2,77.6,2,68.7c0-8.3,4.2-16.6,14.2-16.6c10.1,0,14.1,8.8,13.8,17.6H5.8z M26.1,66.5c-0.2-5.8-3.8-11.2-10-11.2
			c-6.3,0-9.7,5.5-10.3,11.2H26.1z"/>
		<path fill="#FFFFFF" d="M43.7,68.1L32.5,53h4.8l8.9,11.9L55,53h4.8L48.5,68l12.2,16.4h-4.9L46,71.2l-9.7,13.2h-4.7L43.7,68.1z"/>
		<path fill="#FFFFFF" d="M64.4,53h3.5v6H68c1.8-4.3,6.1-6.9,11.2-6.9c9.6,0,14.1,7.7,14.1,16.6c0,8.9-4.6,16.6-14.1,16.6
			c-4.7,0-9.2-2.4-10.9-6.9h-0.1V96h-3.8V53z M79.2,55.3c-8.5,0-11,6.3-11,13.4c0,6.5,2.9,13.4,11,13.4c7.3,0,10.3-6.9,10.3-13.4
			C89.5,62.2,86.5,55.3,79.2,55.3z"/>
		<path fill="#FFFFFF" d="M99.4,41h3.8v43.4h-3.8V41z"/>
		<path fill="#FFFFFF" d="M138.7,68.7c0,9-5.2,16.6-14.8,16.6c-9.6,0-14.8-7.6-14.8-16.6c0-9,5.2-16.6,14.8-16.6
			C133.4,52.1,138.7,59.7,138.7,68.7z M112.8,68.7c0,6.7,3.7,13.4,11,13.4c7.4,0,11-6.7,11-13.4s-3.7-13.4-11-13.4
			C116.5,55.3,112.8,62,112.8,68.7z"/>
		<path fill="#FFFFFF" d="M144.4,53h3.5v7.4h0.1c1.9-5,6.2-8,11.9-7.8v3.8c-6.9-0.4-11.7,4.7-11.7,11.2v16.7h-3.8V53z"/>
		<path fill="#FFFFFF" d="M164.7,69.7c0.1,5.6,3,12.3,10.3,12.3c5.6,0,8.6-3.3,9.9-8h3.8c-1.6,7.1-5.8,11.3-13.7,11.3
			c-10,0-14.2-7.7-14.2-16.6c0-8.3,4.2-16.6,14.2-16.6c10.1,0,14.1,8.8,13.8,17.6H164.7z M185,66.5c-0.2-5.8-3.8-11.2-10-11.2
			c-6.3,0-9.7,5.5-10.3,11.2H185z"/>
	</g>
	<path fill="#FFFFFF" d="M216.4,83.1c0.8,9.8,7.8,13.3,16.4,13.3c6,0,16.5-1.3,16.1-10.1c-0.4-8.9-12-9.9-23.6-12.7
		C213.5,71,202,66.5,202,51c0-16.7,17.1-21.9,30.2-21.9c14.8,0,28.3,6.5,30.2,23.5h-16.7c-1.4-8-7.7-10.2-14.7-10.2
		c-4.6,0-13.2,1.2-13.2,7.8c0,8.3,11.8,9.5,23.5,12.3c11.6,2.8,23.4,7.3,23.4,22.3c0,18.2-17.4,24.9-32.3,24.9
		c-18.2,0-31.8-8.6-32.1-26.6H216.4z M267.8,31.2h12.7V8.2h16.9v22.9h15.2v12.6h-15.2v40.8c0,7,0.6,10.5,8.1,10.5
		c2.4,0,4.7,0,7.1-0.6v13c-3.7,0.3-7.3,0.9-11,0.9c-17.6,0-20.9-6.8-21.2-19.5V43.7h-12.7V31.2z M318,87.7h10.3v20H318V87.7z
		 M345.7,2h16.9v105.7h-16.9V2z M519.5,107.7h-15.3V97h-0.3c-3.8,7.7-12.3,12.7-20.1,12.7c-18.4,0-26.4-10.1-26.4-30V31.2H473v46.9
		c0,13.5,5.1,18.3,13.5,18.3c13,0,17.4-9,17.4-20.9V31.2h15.6V107.7z M530.3,2h16.9v16h-16.9V2z M530.3,31.2h16.9v76.5h-16.9V31.2z
		 M571.3,83.1c0.8,9.8,7.7,13.3,16.2,13.3c5.9,0,16.3-1.3,15.9-10.1c-0.4-8.9-11.9-9.9-23.4-12.7c-11.6-2.7-23-7.1-23-22.6
		c0-16.7,16.9-21.9,29.9-21.9c14.7,0,27.9,6.5,29.9,23.5h-16.5c-1.4-8-7.6-10.2-14.5-10.2c-4.6,0-13,1.2-13,7.8
		c0,8.3,11.6,9.5,23.2,12.3c11.5,2.8,23.1,7.3,23.1,22.3c0,18.2-17.2,24.9-32,24.9c-18,0-31.4-8.6-31.7-26.6H571.3z M433.3,39.3
		c-16.8-13.1-41.1-10-54.2,6.9c-13.1,16.9-10,41.1,6.9,54.2c16.9,13.1,41.1,10,54.2-6.9C453.2,76.6,450.2,52.3,433.3,39.3z
		 M435.5,90.1c-10.3,13.3-29.5,15.7-42.8,5.4c-13.3-10.3-15.7-29.5-5.4-42.8c10.3-13.3,29.5-15.7,42.8-5.4
		C443.4,57.7,445.8,76.8,435.5,90.1z"/>
</g>
</svg>
