<svg xmlns="http://www.w3.org/2000/svg" viewBox="0 0 200 113.5"><defs><style>.cls-1{fill:none;}.cls-2{fill:#fff;}</style></defs><g id="Layer_2" data-name="Layer 2"><g id="Layer_1-2" data-name="Layer 1"><rect class="cls-1" width="200" height="113.5"/><path class="cls-2" d="M144.82,75.64a3.13,3.13,0,1,1-3.18,3.12A3.13,3.13,0,0,1,144.82,75.64ZM146.28,78a.94.94,0,0,1-1,1l1.05,1.58h-.62l-1-1.56h-.62v1.56h-.56V77H145C145.85,77,146.28,77.29,146.28,78Zm-2.12.55h.65c.69,0,.91-.19.91-.58s-.17-.54-.8-.54h-.76Zm.66,2.84a2.62,2.62,0,1,0-2.58-2.62A2.54,2.54,0,0,0,144.82,81.38Zm-12.28-4.94c3.54,0,6.37,1.49,6.37,5.49,0,3.78-2.59,5.61-6.27,5.61h-5.48V76.44Zm-1,9.24c3.73,0,5.17-1.14,5.17-3.73s-1.5-3.64-5.17-3.64h-2.21v7.37Zm-17.44-9.24h2.49L122,87.54h-2.32L118.54,85h-6.43l-1.19,2.54H108.6ZM113,83.13h4.67l-2.33-4.94Zm-16.68-.38v2.93h8v1.86H94.16V76.44h10v1.87H96.34v2.58h6.75v1.86Zm-8.26-3A3.15,3.15,0,0,1,85,83l3.42,4.52h-2.7l-3.23-4.38H79v4.38H76.81V76.44h6.71C86.17,76.44,88.08,77.05,88.08,79.76ZM79,81.38H83.2c1.79,0,2.69-.26,2.69-1.57s-.9-1.57-2.69-1.57H79Zm-9.71.21A3,3,0,0,1,71,84.32c0,2.1-1.68,3.22-4.41,3.22H59.45V76.44h6.74c2.62,0,4.37.74,4.37,2.84A2.41,2.41,0,0,1,69.27,81.59Zm-7.63-3.35v2.59h4.68c1.43,0,2.07-.36,2.07-1.29s-.64-1.3-2.07-1.3Zm4.74,7.5c1.39,0,2.43-.27,2.43-1.59,0-1.16-1-1.52-2.43-1.52H61.64v3.11Zm88.93-30.66a18.52,18.52,0,0,1,2.31-5.61,19,19,0,0,1,5.07-5A18.38,18.38,0,0,1,173.83,41a5.23,5.23,0,0,1,3.14.88c1,.84.17,2.13-.47,2.91-4.93.31-9.21,3.16-12.5,6.59a31.17,31.17,0,0,0-4.48,5.79c-.48.86-1.89,3.67.19,3.45a8.61,8.61,0,0,0,3.69-1.51c1.14-.72,2.25-1.48,3.34-2.25a35.31,35.31,0,0,0,6.12-5.12,18.73,18.73,0,0,0,2.26-3,13.25,13.25,0,0,1,1.53-2.17,3.55,3.55,0,0,1,2.21-1.43,3,3,0,0,1,1.28.37,6.48,6.48,0,0,1,1.41.78c2.12,1.59,1.21,4.78.88,7a17.43,17.43,0,0,0-.13,4.21A7.36,7.36,0,0,0,184,62c.35.33.67.55,1,.84s-.57.68-.8.71c-2.34.37-3.45-.15-4.3-.79-2.54-1.93-3.24-5.12-4.6-7.74-2.22,1.68-4.5,3.31-6.88,4.79-1.21.75-2.44,1.46-3.71,2.1a16.54,16.54,0,0,1-3.51,1.45c-2.14.54-4.47.09-5.72-1.86S154.78,57.06,155.31,55.08ZM138.87,64.7a4.14,4.14,0,0,1-2.81-3.6,14.44,14.44,0,0,1,.71-5.53c.49-1.77,1.13-3.5,1.62-5.26a36.15,36.15,0,0,0,1.19-7.46c0-.72.08-1.46.08-2.18a4.82,4.82,0,0,1,0-1.42c.14-.43.57-.24.83,0a8.14,8.14,0,0,1,2,2.32A5.6,5.6,0,0,1,143.62,44c3.49-3.09,8.65-5.31,13.4-4.29a2.93,2.93,0,0,1,2.23,2.07A1.14,1.14,0,0,1,158,43.27c-.86-.08-1.66-.48-2.51-.64a5.24,5.24,0,0,0-3.12.78A16.07,16.07,0,0,0,147.12,48a12.66,12.66,0,0,0-2.46,6.36c-.19,1.46-.31,2.88-.61,4.33a14.3,14.3,0,0,1-1.55,4.6A2.94,2.94,0,0,1,138.87,64.7ZM126.54,51a32.52,32.52,0,0,1-13.45,1.85,4.17,4.17,0,0,0,.93,3,3.76,3.76,0,0,0,2.5,1c2.56.19,5.22-.76,7.57-1.62s4.85-2,7.31-2.91a6.92,6.92,0,0,1,2.18-.59c.88,0,.64,1.16.46,1.71-.54,1.62-2.07,2.87-3.41,3.86a38.32,38.32,0,0,1-4.71,2.89A42,42,0,0,1,120,62.84a14.72,14.72,0,0,1-7.82.87,6.52,6.52,0,0,1-4.62-3.48,8.21,8.21,0,0,1-.4-5.63,15.36,15.36,0,0,1,3.86-6.28,24.16,24.16,0,0,1,5.62-4.48A24.86,24.86,0,0,1,124.4,41c2.23-.4,5.13-.47,6.72,1.46a3.91,3.91,0,0,1,1.18,2.94,5.12,5.12,0,0,1-1.24,2.76A10.19,10.19,0,0,1,126.54,51Zm-12.39-.49c3.87.84,11.44-.91,14.24-3.37,1.08-1-1.51-1.73-2.06-1.84a11.36,11.36,0,0,0-6.27.43,17.87,17.87,0,0,0-4,2.22C115.45,48.39,113.75,49.53,114.15,50.5Zm-17-6A13,13,0,0,0,94,46.94a33.37,33.37,0,0,0-3.33,4.2c-.77,1.39-1.54,3.11-2.23,4.55C87.61,57.41,87,60.1,86,61.75a3.66,3.66,0,0,1-4.17,1.62c-1-.19-1.44-1-1.74-1.9a9.21,9.21,0,0,1-.33-3.87,32.12,32.12,0,0,1,2.33-7.7,17.4,17.4,0,0,0,1.14-4.3c.1-.91.1-1.62-.69-2.2a12.64,12.64,0,0,0-1.82-1,4.58,4.58,0,0,1-1.79-1.27c-.28-.46.61-.73.93-.76a5.92,5.92,0,0,1,2.24.3,18.58,18.58,0,0,1,4.32,1.79,4.52,4.52,0,0,1,1.94,2,8.92,8.92,0,0,1,.56,2.75,17,17,0,0,0,0,2.67c2.52-3.91,6.51-7.91,11.31-8.58,1.17-.17,2.42,0,2.89,1.26a6.32,6.32,0,0,1,0,3.92c-.33,1.41-.93,3.51-1.18,4.65-1.2,5.23-.65,8.43.63,10.89.25.49.62,1.48.29,2-.21.37-.78.19-1.08.06-1.17-.46-5.27-1.68-6.36-5.94-1.14-4.52,1.9-12.18,2.19-13C97.9,44.39,97.58,44.35,97.11,44.49ZM49.22,49.4a21.29,21.29,0,0,1,5.41-5.09,21.63,21.63,0,0,1,4.6-2.14,24.39,24.39,0,0,1,5.07-1.24c1.51-.16,3.87-.2,4.44,1.58s-1,2.56-2.49,3.09A26.22,26.22,0,0,0,60,49.27a38.53,38.53,0,0,0-6.33,5.1,30,30,0,0,0-2.46,3.18,8.12,8.12,0,0,0-1.51,3.06,9.78,9.78,0,0,0,5.86-1.68,39,39,0,0,0,5.57-4.27c.83-.72,1.64-1.45,2.48-2.17a15,15,0,0,0,2.11-1.86,14,14,0,0,0,1.23-2.41,4.4,4.4,0,0,1,2-2.09,4,4,0,0,1,5.06,2,4.32,4.32,0,0,1,.2,3.14c-.28,1.26-.71,2.48-.9,3.77a7,7,0,0,0,.19,3.34,21.23,21.23,0,0,0,1,2c.32.63,1.87,3.19.67,3.67-2.23.33-4.59-1.45-6.11-2.85s-3.56-3.72-3.32-6a77.41,77.41,0,0,1-6.89,4.9,29.89,29.89,0,0,1-3.76,2,13.58,13.58,0,0,1-3.71,1.17,4.8,4.8,0,0,1-4.73-1.92,6.93,6.93,0,0,1-.7-5.47A18.12,18.12,0,0,1,49.22,49.4ZM14.94,31.25c-.3-1.53,1-3,3-3.75a26.71,26.71,0,0,1,5.65-1.14c9-1.12,24.6.11,31.44,3.76a4.28,4.28,0,0,1,2,2.75c.31,1.19-.09,4.29-5.09,7.74-3.47,2.39-9.87,5.33-16,7.38-.31.1-.59.25-.89.36l-.44.17c-.3.12-.28.13-.25.47a25.93,25.93,0,0,0,.94,4.52c.29,1,.57,2,.94,3,.31.82.63,1.64.89,2.48.46,1.45,1,3.48,0,4.83a3.76,3.76,0,0,1-2.51,1.2,6.58,6.58,0,0,1-3.32-.35A7.61,7.61,0,0,1,27,60.61c-1.16-2.23-.34-13.09.24-15.82.31-1.44.53-2.91.78-4.36s1.34-6.6,1.06-6.71a15.06,15.06,0,0,0-4.18.89A14.82,14.82,0,0,0,22,36.29a3,3,0,0,1-2.78,0A7,7,0,0,1,14.94,31.25ZM33.1,33.19c-.43.07-.33,1.43-.3,1.81.08,1.13.2,2.25.3,3.38.22,2.66.46,5.33.93,8A45.63,45.63,0,0,0,49.24,38.5c1.87-1.62,3.35-4,2.65-4.73C50,31.91,39.61,32.22,33.1,33.19Z"/></g></g></svg>