<?xml version="1.0" encoding="utf-8"?>
<!-- Generator: Adobe Illustrator 20.0.0, SVG Export Plug-In . SVG Version: 6.00 Build 0)  -->
<svg version="1.1" id="Layer_1" xmlns="http://www.w3.org/2000/svg" xmlns:xlink="http://www.w3.org/1999/xlink" x="0px" y="0px"
	 viewBox="0 0 140 64" style="enable-background:new 0 0 140 64;" xml:space="preserve">
<style type="text/css">
	.st0{fill:#FFFFFF;}
</style>
<g id="oLtCPX.tif">
	<g>
		<path class="st0" d="M138.1,18.9c0.2,2,0,4-0.5,5.8c0,0.1-0.1,0.2-0.1,0.4c-1.4,4-3.9,7.2-6.8,10.2c-3.1,3.1-6.5,5.8-10.2,8.1
			c-0.1,0.1-0.2,0.1-0.4,0.2c1.3-1.4,2.5-2.7,3.6-4.2c2-2.5,3.4-5.2,3.9-8.4c0.6-3.9-0.4-7.3-3-10.2c-1.3-1.4-2.8-2.4-4.2-3.6
			c-0.3-0.3-0.6-0.6-0.7-1c-0.4-1.9-1-2.6-3-2.4c-3.2,0.2-6.2-0.6-9.2-1.3c-7.3-1.5-14.7-1.6-22.1-1.4c-5.8,0.2-11.6,0.6-17.3,2.3
			c-1.8,0.5-3.7,0.6-5.5,0.6c-0.7,0-1.4,0-2.2,0c-1,0-1.8,0.2-2.5,1.2c-0.6-1.2-1.7-1.4-2.9-1.4c-5.1,0-10.2,0-15.2,0
			c-2.5,0-4.8,0.7-6.9,2.2c-4,2.9-5.6,7.1-4.2,12c0.1,0.3,0.2,0.7,0.3,1c-1.7,1.3-3.3,2.5-4.9,3.9c-2.8,2.3-5.2,4.9-7.1,8
			c-1.3,2.2-2.2,4.4-2.4,7c-0.3,3.8,1,7,3.5,9.7c2,2.1,4.5,3.7,7.2,4.9c0.4,0.2,0.8,0.4,1.2,0.6c0,0.1,0,0.1-0.1,0.2
			c-1.4-0.3-2.7-0.6-4.1-0.9c-4.1-1-8.1-2.4-11.7-4.6c-3.2-2-6-4.5-7.4-8.1c-0.4-0.9-0.5-2-0.8-2.9c0-1,0-1.9,0-2.9
			c0.1-0.1,0.1-0.2,0.2-0.3c0.3-2.5,1.3-4.8,2.6-6.9c2.1-3.5,5-6.4,8.1-9c6.4-5.4,13.5-9.5,21.1-12.9C51.2,6.8,69,2.5,87.5,1.2
			C89,1.1,99,0.7,102.7,1c5.7,0.5,11.4,1,17,2.6c4.7,1.3,9.1,3,12.9,6.1c2.4,1.9,4.3,4.3,5.2,7.3C137.9,17.3,138,18,138.1,18.9z"/>
		<path class="st0" d="M70.8,27c-0.2,1.3-0.4,2.4-0.5,3.5c5,0,10,0,15.1,0c-0.1,0.4-0.2,0.6-0.3,0.8c-1.3,3-2.7,6-4,8.9
			c-0.3,0.6-0.6,0.8-1.2,0.8c-3.4,0-6.8,0-10.2,0c-0.8,0-1,0.3-1,1c0,0.9-0.2,1.7-0.3,2.7c6.1,0,12.1,0,18.3,0
			c-0.1,0.4-0.2,0.6-0.3,0.9c-1.3,3.1-2.7,6.3-4,9.4c-0.2,0.5-0.4,0.7-1,0.7c-8.8,0-17.6,0-26.4,0c-0.2,0-0.5,0-0.8-0.1
			c1.9-13.2,3.7-26.4,5.6-39.7c9,0,18,0,27,0c0.4,3.6,0.8,7.2,1.3,10.9C82.2,27,76.6,27,70.8,27z"/>
		<path class="st0" d="M55.7,16.2c0.4,3.6,0.9,7.2,1.3,10.9c-0.4,0-0.7,0.1-1,0.1c-1.7,0-3.4,0-5.1,0c-0.5,0-1,0-1.5,0.1
			c-2.2,0.3-3.2,2.2-2.2,4.2c1.8,3.6,3.6,7.3,5.4,10.9c1,2,1.5,4,1.1,6.2c-0.4,2.4-1.8,4.1-3.9,5.3c-2.3,1.4-4.9,2-7.6,2.1
			c-4.8,0.1-9.6,0-14.3,0c-0.1,0-0.3,0-0.5-0.1c-0.4-3.6-0.8-7.2-1.2-10.9c0.4,0,0.7-0.1,1-0.1c2.4,0,4.8,0,7.2,0
			c2.5,0,3.8-1.7,2.7-4c-1.3-2.8-2.8-5.5-4.1-8.2c-0.9-1.8-1.9-3.6-2.4-5.5c-1.4-5.4,2.4-10.6,7.9-10.8C44.2,16,49.9,16.2,55.7,16.2
			z"/>
		<path class="st0" d="M88.9,55.8c-0.4-3.6-0.8-7.2-1.2-10.9c0.4,0,0.7,0,1,0c2.4,0,4.7,0,7.1,0c2.6,0,3.8-1.7,2.8-4.1
			c-0.9-2-1.9-3.9-2.9-5.8c-0.9-1.7-1.9-3.3-2.6-5.1c-0.6-1.5-1.2-3.2-1.3-4.8c-0.3-4.3,3.6-8.6,8-8.8c5.7-0.2,11.4-0.1,17-0.2
			c0.1,0,0.2,0,0.3,0.1c0.4,3.6,0.9,7.2,1.3,10.9c-0.4,0-0.7,0.1-1,0.1c-1.7,0-3.5,0-5.2,0c-0.6,0-1.2,0-1.8,0.2
			c-2,0.5-2.8,2.2-1.9,4c1.8,3.7,3.6,7.3,5.4,11c1,2,1.5,4.1,1.1,6.4c-0.4,2.3-1.8,3.9-3.8,5c-2.4,1.4-5,2.1-7.7,2.1
			c-4.7,0.1-9.5,0-14.2,0C89.2,55.8,89.1,55.8,88.9,55.8z"/>
	</g>
</g>
</svg>
