<?xml version="1.0" encoding="utf-8"?>
<!-- Generator: Adobe Illustrator 24.1.2, SVG Export Plug-In . SVG Version: 6.00 Build 0)  -->
<svg version="1.1" id="Layer_1" xmlns="http://www.w3.org/2000/svg" xmlns:xlink="http://www.w3.org/1999/xlink" x="0px" y="0px"
	 viewBox="0 0 200 100" style="enable-background:new 0 0 200 100;" xml:space="preserve">
<style type="text/css">
	.st0{fill:#FFFFFF;stroke:#FFFFFF;stroke-width:7.2;}
	.st1{fill:#FFDF00;stroke:#BFBFBF;stroke-width:7.2;}
	.st2{fill:#CDCDCD;stroke:#BFBFBF;stroke-width:4.2414;}
	.st3{fill:#BFBFBF;}
	.st4{fill:#FFFFFF;}
</style>
<g>
	<path class="st0" d="M62.9,20h4.8v60.4H6V13.3h53.5v3.3V20H62.9z"/>
	<path class="st1" d="M21.1,38.8h31.5V67H21.1V38.8z"/>
	<rect x="19.7" y="25.3" class="st2" width="34.3" height="4"/>
	<rect x="2.4" y="83.9" class="st3" width="68.9" height="6.9"/>
	<path class="st4" d="M116.8,41.9c-1.1,1.2-2.7,2.2-4.8,2.9c-2.1,0.7-4.4,1.1-6.9,1.1c-3.8,0-6.9-1.2-9.2-3.5
		c-2.3-2.3-3.5-5.6-3.7-9.8l0-2.5c0-2.9,0.5-5.4,1.5-7.5c1-2.2,2.5-3.8,4.4-5c1.9-1.2,4.1-1.7,6.6-1.7c3.6,0,6.5,0.8,8.5,2.5
		c2,1.7,3.2,4.1,3.5,7.4H110c-0.2-1.6-0.8-2.8-1.6-3.5c-0.8-0.7-1.9-1-3.4-1c-1.8,0-3.1,0.7-4.1,2.2c-1,1.5-1.5,3.6-1.5,6.4v1.8
		c0,2.9,0.5,5.1,1.5,6.6c1,1.5,2.6,2.2,4.7,2.2c1.8,0,3.2-0.4,4.1-1.2v-4.5h-4.9v-4.8h11.9V41.9z"/>
	<path class="st4" d="M132.9,45.5c-0.2-0.4-0.5-1.1-0.6-1.9c-1.2,1.6-3,2.3-5.2,2.3c-2,0-3.8-0.6-5.2-1.8c-1.4-1.2-2.1-2.8-2.1-4.7
		c0-2.4,0.9-4.1,2.6-5.3c1.7-1.2,4.3-1.8,7.6-1.8h2.1v-1.1c0-2-0.9-3-2.6-3c-1.6,0-2.4,0.8-2.4,2.4h-6.8c0-2.1,0.9-3.8,2.7-5.1
		c1.8-1.3,4.1-2,6.8-2c2.8,0,5,0.7,6.6,2c1.6,1.4,2.4,3.2,2.5,5.6v9.6c0,2,0.3,3.5,0.9,4.6v0.3H132.9z M128.6,41.1
		c0.8,0,1.5-0.2,2.1-0.5c0.6-0.4,1-0.8,1.2-1.2v-3.5h-2c-2.4,0-3.5,1.1-3.5,3.2c0,0.6,0.2,1.1,0.6,1.5
		C127.5,40.9,128,41.1,128.6,41.1z"/>
	<path class="st4" d="M148.9,23.8l0.2,2.5c1.5-2,3.6-3,6.2-3c2.7,0,4.6,1.1,5.6,3.3c1.5-2.2,3.6-3.3,6.4-3.3c4.4,0,6.7,2.7,6.8,8
		v14.1h-6.8V31.8c0-1.1-0.2-1.9-0.6-2.4c-0.4-0.5-1.1-0.8-2-0.8c-1.3,0-2.3,0.6-3,1.8l0,0.3v14.8h-6.8V31.8c0-1.1-0.2-2-0.5-2.5
		c-0.4-0.5-1.1-0.8-2.1-0.8c-1.3,0-2.3,0.6-3,1.8v15.1h-6.8V23.8H148.9z"/>
	<path class="st4" d="M188.4,45.9c-3.3,0-6-1-8.1-3c-2.1-2-3.1-4.6-3.1-7.8v-0.6c0-2.2,0.4-4.2,1.2-5.9c0.8-1.7,2-3,3.6-3.9
		c1.6-0.9,3.5-1.4,5.6-1.4c3.1,0,5.5,1,7.2,2.9c1.8,1.9,2.7,4.5,2.7,7.9v2.6h-13.5c0.2,1.2,0.8,2.2,1.6,2.9c0.8,0.7,1.9,1,3.2,1
		c2.1,0,3.8-0.7,5-2.2l3.1,3.7c-0.8,1.2-2,2.1-3.6,2.8C191.8,45.5,190.2,45.9,188.4,45.9z M187.6,28.6c-2,0-3.2,1.3-3.5,3.9h6.8V32
		c0-1.1-0.2-1.9-0.8-2.5C189.5,28.9,188.7,28.6,187.6,28.6z"/>
	<path class="st4" d="M108,76.1c0-1-0.4-1.8-1.1-2.4c-0.7-0.6-2-1.2-3.8-1.8c-1.8-0.6-3.3-1.2-4.5-1.8c-3.8-1.9-5.7-4.4-5.7-7.7
		c0-1.6,0.5-3,1.4-4.3c1-1.2,2.3-2.2,4-2.9c1.7-0.7,3.7-1,5.8-1c2.1,0,4,0.4,5.6,1.1c1.7,0.7,3,1.8,3.9,3.2c0.9,1.4,1.4,3,1.4,4.7
		h-7c0-1.2-0.4-2.1-1.1-2.8c-0.7-0.7-1.7-1-3-1c-1.3,0-2.3,0.3-3,0.8c-0.7,0.5-1.1,1.3-1.1,2.1c0,0.7,0.4,1.4,1.2,2
		c0.8,0.6,2.2,1.2,4.2,1.9c2,0.6,3.7,1.3,5,2.1c3.2,1.8,4.7,4.3,4.7,7.5c0,2.6-1,4.6-2.9,6c-1.9,1.5-4.6,2.2-7.9,2.2
		c-2.4,0-4.5-0.4-6.4-1.3c-1.9-0.9-3.4-2-4.3-3.5c-1-1.5-1.4-3.2-1.4-5.1H99c0,1.6,0.4,2.7,1.2,3.5c0.8,0.7,2.1,1.1,4,1.1
		c1.2,0,2.1-0.2,2.8-0.7C107.6,77.7,108,77,108,76.1z"/>
	<path class="st4" d="M124.9,64.5c1.4-1.8,3.3-2.7,5.5-2.7c2.4,0,4.2,0.7,5.4,2.1c1.2,1.4,1.8,3.5,1.9,6.3v13.7H131V70.3
		c0-1.2-0.2-2-0.7-2.5c-0.5-0.5-1.3-0.8-2.4-0.8c-1.4,0-2.4,0.4-3,1.3v15.6h-6.8V53h6.8V64.5z"/>
	<path class="st4" d="M152.1,84.3c-3.3,0-6-1-8.1-3c-2.1-2-3.1-4.6-3.1-7.8V73c0-2.2,0.4-4.2,1.2-5.9c0.8-1.7,2-3,3.6-3.9
		c1.6-0.9,3.5-1.4,5.6-1.4c3.1,0,5.5,1,7.2,2.9c1.8,1.9,2.6,4.5,2.6,7.9v2.6h-13.5c0.2,1.2,0.8,2.2,1.6,2.9c0.8,0.7,1.9,1,3.2,1
		c2.1,0,3.8-0.7,5-2.2l3.1,3.7c-0.8,1.2-2,2.1-3.6,2.8C155.5,83.9,153.8,84.3,152.1,84.3z M151.3,67c-2,0-3.2,1.3-3.5,3.9h6.8v-0.5
		c0-1.1-0.2-1.9-0.8-2.5C153.2,67.3,152.4,67,151.3,67z"/>
	<path class="st4" d="M171.1,83.9h-6.8V53h6.8V83.9z"/>
	<path class="st4" d="M176.8,83.9v-17h-3.2v-4.7h3.2v-1.7c0-2.5,0.7-4.4,2.2-5.8c1.5-1.4,3.5-2,6.1-2c1,0,2,0.1,3.2,0.4l0,5
		c-0.4-0.1-1-0.2-1.7-0.2c-2,0-3.1,0.9-3.1,2.7v1.7h4.2v4.7h-4.2v17H176.8z"/>
</g>
</svg>
