<svg xmlns="http://www.w3.org/2000/svg" viewBox="0 0 142.44 50"><defs><style>.cls-1{fill:#f0f0f0}.cls-2{fill:#c1c1c1}.cls-3{stroke:#ecb54b}.cls-3,.cls-4,.cls-5{stroke-linecap:round;stroke-linejoin:round;stroke-width:4px}.cls-4{stroke:#4076cc}.cls-5{stroke:#ec644b}.cls-6{fill:#fff}</style></defs><title>Asset 1</title><g id="Layer_2" data-name="Layer 2"><g id="Layer_1-2" data-name="Layer 1"><path class="cls-1" d="M142.44 2v46a2 2 0 0 1-2 2h-46a2 2 0 0 1-2-2V12l12-12h36a2 2 0 0 1 2 2z"/><path class="cls-2" d="M104.44 0v10a2 2 0 0 1-2 2h-10z"/><path class="cls-3" d="M115.22 26.28h15"/><path class="cls-4" d="M125.22 33.28h5"/><path class="cls-3" d="M105.22 26.28h2"/><path class="cls-4" d="M105.22 33.28h12"/><path class="cls-5" d="M108.22 18.28h22"/><path class="cls-6" d="M11.36 15.34L15.95.47h6l4.55 14.87L31.67.47h6.25l-9 25.86h-4.31l-5.66-18-5.62 18H9L0 .47h6.25zM59.64.47v5.14H46.77v5.33h11.58v4.92H46.77v5.37h13.28v5.11H41V.47zm16.88 25.86H65.19V.47h10.07a14.52 14.52 0 0 1 4.53.63 6.52 6.52 0 0 1 2.87 1.7 6.7 6.7 0 0 1 1.74 4.52 5.29 5.29 0 0 1-2 4.51 7.06 7.06 0 0 1-.92.65l-.93.43a6.79 6.79 0 0 1 3.83 2.16 6 6 0 0 1 1.42 4.09 7 7 0 0 1-1.8 4.77q-2.16 2.4-7.48 2.4zM71 10.94h2.74a9.27 9.27 0 0 0 3.57-.52 2.19 2.19 0 0 0 1.16-2.24A2.31 2.31 0 0 0 77.4 5.9a8.5 8.5 0 0 0-3.63-.56H71zm0 10.51h4a8.75 8.75 0 0 0 3.72-.61 2.42 2.42 0 0 0 1.24-2.4 2.31 2.31 0 0 0-1.31-2.37 11.27 11.27 0 0 0-4.2-.57H71zM15.27 32.56H19v16.77h-3.73l-8-10.51v10.51H3.53V32.56H7l8.23 10.8zM37.25 47A8.62 8.62 0 0 1 31 49.5a8.62 8.62 0 0 1-6.28-2.5 8.78 8.78 0 0 1 0-12.36A8.62 8.62 0 0 1 31 32.17a8.62 8.62 0 0 1 6.26 2.48 8.78 8.78 0 0 1 0 12.36zM36 40.85A5.49 5.49 0 0 0 34.54 37a4.75 4.75 0 0 0-7.08 0 5.79 5.79 0 0 0 0 7.64 4.77 4.77 0 0 0 7.08 0A5.45 5.45 0 0 0 36 40.85zm13.61-5.05v13.53h-3.75V35.8h-4.75v-3.24h13.25v3.24zm19.58-3.24v3.34h-8.35v3.46h7.51v3.19h-7.51V46h8.62v3.31H57.1V32.56zm7.53 3.34a1.45 1.45 0 0 0-.54 1.18 1.33 1.33 0 0 0 .66 1.16 12 12 0 0 0 3 1A8.59 8.59 0 0 1 83.59 41a4.36 4.36 0 0 1 1.32 3.43 4.53 4.53 0 0 1-1.69 3.66 6.75 6.75 0 0 1-4.45 1.4 10.3 10.3 0 0 1-7.18-3l2.23-2.74q2.71 2.38 5 2.38a2.63 2.63 0 0 0 1.62-.44 1.43 1.43 0 0 0 .59-1.2 1.4 1.4 0 0 0-.62-1.2 8.15 8.15 0 0 0-2.47-.9 10.74 10.74 0 0 1-4.28-1.81 4.28 4.28 0 0 1-1.36-3.5 4.34 4.34 0 0 1 1.7-3.61 6.9 6.9 0 0 1 4.28-1.3 10.31 10.31 0 0 1 3.36.58 9 9 0 0 1 2.93 1.63l-1.9 2.74a7.39 7.39 0 0 0-4.51-1.66 2.26 2.26 0 0 0-1.44.44z"/></g></g></svg>