<svg
  id="Layer_1"
  data-name="Layer 1"
  xmlns="http://www.w3.org/2000/svg"
  viewBox="0 0 64 64"
>
  <title>icon</title>
  <path d="M51.94,12.06a8,8,0,0,0-11.31,0h0L35,17.72,9.51,43.17h0A17.07,17.07,0,0,1,20.83,54.49h0L46.28,29l5.66-5.66h0a8,8,0,0,0,0-11.31Z" />
  <path d="M11.37,45.89a13.78,13.78,0,0,1,6.74,6.73L11,53l.37-7.1M9.51,43.17,9,53a2,2,0,0,0,2,2l9.8-.51A15.39,15.39,0,0,0,9.51,43.17Z" />
  <path d="M9.08,52.71l.43-3.88h0a5.66,5.66,0,0,1,5.66,5.66h0l-3.88.43A2,2,0,0,1,9.08,52.71Z" />
  <path d="M46.59,20.41a3,3,0,0,1-2.12-5.12l5.34-5.34a3,3,0,0,1,4.24,4.24l-5.34,5.34A3,3,0,0,1,46.59,20.41Z" />
  <path
    d="M41.68,20.52h0a4,4,0,0,1,4,4V42.61a4,4,0,0,1-4,4h0a0,0,0,0,1,0,0V20.52A0,0,0,0,1,41.68,20.52Z"
    transform="translate(36.53 -21.06) rotate(45)"
  />
</svg>
