<svg
  id="Layer_1"
  data-name="Layer 1"
  xmlns="http://www.w3.org/2000/svg"
  viewbox="0 0 64 64"
>
  <title>icon</title>
  <polygon points="38.36 49.06 25.5 49.06 22.82 37.73 16.42 27.06 47.58 27.06 38.36 49.06" />
  <path d="M16.42,27.06A12.94,12.94,0,1,0,29.35,40,12.94,12.94,0,0,0,16.42,27.06ZM20.5,41H18v2.5A1.5,1.5,0,0,1,16.5,45h0A1.5,1.5,0,0,1,15,43.5V41H12.5A1.5,1.5,0,0,1,11,39.5h0A1.5,1.5,0,0,1,12.5,38H15V35.5A1.5,1.5,0,0,1,16.5,34h0A1.5,1.5,0,0,1,18,35.5V38h2.5A1.5,1.5,0,0,1,22,39.5h0A1.5,1.5,0,0,1,20.5,41Z" />
  <path d="M47.58,27.06A12.94,12.94,0,1,0,60.52,40,12.94,12.94,0,0,0,47.58,27.06Zm.08,8A1.67,1.67,0,1,1,46,36.74,1.67,1.67,0,0,1,47.66,35.08Zm-3.33,6.67A1.67,1.67,0,1,1,46,40.08,1.67,1.67,0,0,1,44.33,41.74Zm3.33,3.33a1.67,1.67,0,1,1,1.67-1.67A1.67,1.67,0,0,1,47.66,45.08ZM51,41.74a1.67,1.67,0,1,1,1.67-1.67A1.67,1.67,0,0,1,51,41.74Z" />
  <path d="M30.25,11.06H19a2,2,0,0,0-2,2h0a2,2,0,0,0,2,2H29a1,1,0,0,1,1,1v11h4V14.82a3.75,3.75,0,0,0-3.75-3.75Z" />
</svg>
