<svg
  id="Layer_1"
  data-name="Layer 1"
  xmlns="http://www.w3.org/2000/svg"
  viewbox="0 0 64 64"
>
  <title>icon</title>
  <path d="M32,31.62,56.46,14a1.26,1.26,0,0,0-.67-2.28H8.2A1.26,1.26,0,0,0,7.54,14Z" />
  <path d="M33,35.23l-.08,0a1.74,1.74,0,0,1-.34.17l-.14,0a1.76,1.76,0,0,1-.47.07h0a1.76,1.76,0,0,1-.47-.06l-.14,0a1.74,1.74,0,0,1-.34-.17l-.08,0L5.78,17.11a1.27,1.27,0,0,0-2,1c0,7.53,0,29.67,0,29.67a4.51,4.51,0,0,0,4.51,4.51H55.77a4.51,4.51,0,0,0,4.51-4.51s0-22.14,0-29.67a1.27,1.27,0,0,0-2-1Z" />
</svg>
