<svg xmlns="http://www.w3.org/2000/svg" xmlns:xlink="http://www.w3.org/1999/xlink" viewBox="0 0 419.3 296.86"><defs><style>.cls-1{fill:#565656;}.cls-2{fill:url(#linear-gradient);}.cls-3{fill:#ffecc5;}.cls-4{fill:url(#linear-gradient-2);}.cls-5{fill:#3f3f3f;}.cls-6{fill:url(#linear-gradient-3);}.cls-7{fill:url(#linear-gradient-4);}</style><linearGradient id="linear-gradient" x1="106.14" y1="242.63" x2="245.59" y2="103.17" gradientUnits="userSpaceOnUse"><stop offset="0" stop-color="#e6e6e6"/><stop offset="1" stop-color="#fff"/></linearGradient><linearGradient id="linear-gradient-2" x1="327.27" y1="193.78" x2="255.99" y2="70.33" gradientTransform="translate(156.94 -185.96) rotate(45)" gradientUnits="userSpaceOnUse"><stop offset="0" stop-color="#fea13a"/><stop offset="0" stop-color="#fea13a"/><stop offset="0.14" stop-color="#feb331"/><stop offset="0.3" stop-color="#ffc02b"/><stop offset="0.51" stop-color="#ffc727"/><stop offset="1" stop-color="#ffc926"/></linearGradient><linearGradient id="linear-gradient-3" x1="299.49" y1="43.28" x2="282.7" y2="14.19" gradientTransform="translate(52.61 12.42)" gradientUnits="userSpaceOnUse"><stop offset="0" stop-color="#ff9196"/><stop offset="1" stop-color="#ffada4"/></linearGradient><linearGradient id="linear-gradient-4" x1="302.06" y1="68.87" x2="281.21" y2="32.77" gradientTransform="translate(35.58 5.37)" gradientUnits="userSpaceOnUse"><stop offset="0" stop-color="#c4c4c4"/><stop offset="1" stop-color="#e6e6e6"/></linearGradient></defs><title>Asset 5</title><g id="Layer_2" data-name="Layer 2"><g id="Layer_1-2" data-name="Layer 1"><path class="cls-1" d="M292.45,269.72C-180.65,362.77,90.68,190.56,49.36,143.2-68.67,7.94,47.74-17.32,160.55,9.58,262,33.77,289,64.84,324.23,92.76,437.84,182.77,474.7,233.87,292.45,269.72Z"/><path class="cls-2" d="M144,42.69S251.71,73.14,326.46,205.21c-40.54,11.8-94.59,48.29-131.08,91.53,0,0-117.57-147.3-179.73-144.59C44,114.31,144,42.69,144,42.69Z"/><rect class="cls-3" x="202.92" y="159.27" width="36.49" height="5.95" transform="translate(179.5 -108.87) rotate(45)"/><polygon class="cls-4" points="231.92 177.28 229.46 166.33 219.02 164.38 216.73 153.6 206.12 151.48 307.63 49.98 333.43 75.78 231.92 177.28"/><polygon class="cls-3" points="206.16 151.45 204.22 179.18 231.96 177.25 206.16 151.45"/><polygon class="cls-5" points="204.84 169.93 204.19 179.21 213.48 178.56 204.84 169.93"/><path class="cls-6" d="M334,28.61h20.49a8,8,0,0,1,8,8V49.7a0,0,0,0,1,0,0H326a0,0,0,0,1,0,0V36.61A8,8,0,0,1,334,28.61Z" transform="translate(128.52 -231.95) rotate(45)"/><rect class="cls-7" x="308.97" y="42.65" width="36.49" height="27.08" transform="translate(135.57 -214.92) rotate(45)"/></g></g></svg>